<svg width="175" height="37" viewBox="0 0 175 37" fill="none" xmlns="http://www.w3.org/2000/svg">
<path d="M0.112 36L4.768 2.4H9.808L18.016 17.712L26.176 2.4H31.216L35.872 36H29.488L26.272 10.752L27.952 11.088L18.016 28.944L8.032 11.136L9.712 10.8L6.496 36H0.112Z" fill="#EFEFEF"/>
<path d="M45.6711 36.48C44.3911 36.48 43.2231 36.2 42.1671 35.64C41.1111 35.064 40.2711 34.24 39.6471 33.168C39.0231 32.096 38.7111 30.8 38.7111 29.28C38.7111 27.92 39.0231 26.76 39.6471 25.8C40.2871 24.824 41.1191 24.016 42.1431 23.376C43.1831 22.72 44.3031 22.208 45.5031 21.84C46.7191 21.456 47.9111 21.176 49.0791 21C50.2631 20.824 51.3031 20.72 52.1991 20.688C52.1351 19.312 51.7831 18.312 51.1431 17.688C50.5031 17.064 49.4151 16.752 47.8791 16.752C46.8071 16.752 45.7591 16.904 44.7351 17.208C43.7271 17.496 42.5831 17.952 41.3031 18.576L40.7751 13.728C42.2151 13.024 43.6551 12.496 45.0951 12.144C46.5511 11.792 48.0231 11.616 49.5111 11.616C51.3031 11.616 52.8471 11.936 54.1431 12.576C55.4391 13.216 56.4391 14.248 57.1431 15.672C57.8471 17.08 58.1991 18.944 58.1991 21.264V27.744C58.1991 28.944 58.2551 29.816 58.3671 30.36C58.4791 30.888 58.6871 31.224 58.9911 31.368C59.2951 31.512 59.7351 31.584 60.3111 31.584H61.0791L60.5511 36.48H58.3911C57.4951 36.48 56.6951 36.36 55.9911 36.12C55.3031 35.896 54.7111 35.576 54.2151 35.16C53.7191 34.744 53.3191 34.256 53.0151 33.696C52.2311 34.576 51.1671 35.264 49.8231 35.76C48.4951 36.24 47.1111 36.48 45.6711 36.48ZM48.1671 31.92C48.6951 31.92 49.3511 31.784 50.1351 31.512C50.9191 31.224 51.6231 30.784 52.2471 30.192V24.72C51.1271 24.768 50.0071 24.952 48.8871 25.272C47.7671 25.592 46.8311 26.064 46.0791 26.688C45.3271 27.312 44.9511 28.096 44.9511 29.04C44.9511 30.016 45.2071 30.744 45.7191 31.224C46.2311 31.688 47.0471 31.92 48.1671 31.92Z" fill="#EFEFEF"/>
<path d="M71.8424 36.48C70.3384 36.48 69.1144 36.176 68.1704 35.568C67.2264 34.944 66.5304 34.152 66.0824 33.192C65.6344 32.232 65.4104 31.232 65.4104 30.192V16.896H62.0024L62.5304 12H65.4104V6.72L71.3624 6.096V12H76.6424V16.896H71.3624V27.744C71.3624 28.96 71.4344 29.84 71.5784 30.384C71.7224 30.912 72.0504 31.248 72.5624 31.392C73.0744 31.52 73.8904 31.584 75.0104 31.584H76.6424L76.1144 36.48H71.8424Z" fill="#EFEFEF"/>
<path d="M80.4704 36V0H86.4224V15.504L85.0784 14.448C86.0864 13.744 87.1824 13.096 88.3664 12.504C89.5504 11.912 90.9664 11.616 92.6144 11.616C94.7264 11.616 96.4464 12.088 97.7744 13.032C99.1024 13.96 100.078 15.256 100.702 16.92C101.326 18.568 101.638 20.48 101.638 22.656V36H95.6864V23.088C95.6864 20.848 95.3264 19.192 94.6064 18.12C93.8864 17.048 92.7104 16.512 91.0784 16.512C89.6864 16.512 88.5424 16.84 87.6464 17.496C86.7664 18.136 85.9904 19.008 85.3184 20.112L86.4224 16.896V36H80.4704Z" fill="#EFEFEF"/>
<path d="M118.524 36.48C115.628 36.48 113.212 35.904 111.276 34.752C109.356 33.584 107.916 32.048 106.956 30.144C105.996 28.224 105.516 26.128 105.516 23.856C105.516 21.664 105.964 19.64 106.86 17.784C107.772 15.928 109.1 14.44 110.844 13.32C112.588 12.184 114.716 11.616 117.228 11.616C119.532 11.616 121.452 12.088 122.988 13.032C124.524 13.976 125.676 15.24 126.444 16.824C127.212 18.392 127.596 20.128 127.596 22.032C127.596 22.56 127.564 23.096 127.5 23.64C127.436 24.168 127.34 24.72 127.212 25.296H111.708C111.932 26.784 112.396 27.992 113.1 28.92C113.82 29.832 114.692 30.504 115.716 30.936C116.756 31.368 117.868 31.584 119.052 31.584C120.444 31.584 121.74 31.408 122.94 31.056C124.14 30.688 125.244 30.208 126.252 29.616L126.54 34.656C125.628 35.136 124.492 35.56 123.132 35.928C121.772 36.296 120.236 36.48 118.524 36.48ZM111.852 21.264H121.548C121.548 20.544 121.412 19.824 121.14 19.104C120.868 18.368 120.412 17.752 119.772 17.256C119.148 16.76 118.3 16.512 117.228 16.512C115.692 16.512 114.484 16.96 113.604 17.856C112.724 18.752 112.14 19.888 111.852 21.264Z" fill="#EFEFEF"/>
<path d="M141.595 36.48C139.099 36.48 137.107 35.984 135.619 34.992C134.131 34 133.059 32.64 132.403 30.912C131.747 29.168 131.419 27.168 131.419 24.912V12H137.371V24.912C137.371 27.136 137.739 28.792 138.475 29.88C139.227 30.952 140.443 31.488 142.123 31.488C143.467 31.488 144.579 31.168 145.459 30.528C146.355 29.888 147.099 28.992 147.691 27.84L146.635 30.864V12H152.587V36H147.019L146.731 31.824L148.027 33.504C147.451 34.24 146.539 34.92 145.291 35.544C144.059 36.168 142.827 36.48 141.595 36.48Z" fill="#EFEFEF"/>
<path d="M164.959 36.48C163.375 36.48 161.943 36.328 160.663 36.024C159.399 35.72 158.127 35.28 156.847 34.704L157.375 29.616C158.607 30.336 159.815 30.92 160.999 31.368C162.199 31.8 163.455 32.016 164.767 32.016C165.951 32.016 166.855 31.824 167.479 31.44C168.103 31.056 168.415 30.448 168.415 29.616C168.415 28.992 168.247 28.48 167.911 28.08C167.591 27.68 167.103 27.32 166.447 27C165.791 26.68 164.975 26.336 163.999 25.968C162.527 25.424 161.271 24.832 160.231 24.192C159.207 23.552 158.423 22.784 157.879 21.888C157.351 20.976 157.087 19.856 157.087 18.528C157.087 17.152 157.447 15.936 158.167 14.88C158.887 13.824 159.911 13 161.239 12.408C162.567 11.816 164.143 11.52 165.967 11.52C167.487 11.52 168.847 11.688 170.047 12.024C171.263 12.36 172.383 12.816 173.407 13.392L172.879 18.48C171.807 17.728 170.727 17.112 169.639 16.632C168.551 16.136 167.359 15.888 166.063 15.888C165.039 15.888 164.247 16.096 163.687 16.512C163.127 16.928 162.847 17.52 162.847 18.288C162.847 19.216 163.239 19.912 164.023 20.376C164.807 20.84 166.063 21.408 167.791 22.08C168.911 22.512 169.879 22.96 170.695 23.424C171.527 23.888 172.215 24.4 172.759 24.96C173.303 25.52 173.703 26.16 173.959 26.88C174.231 27.584 174.367 28.4 174.367 29.328C174.367 30.848 173.999 32.144 173.263 33.216C172.543 34.272 171.479 35.08 170.071 35.64C168.679 36.2 166.975 36.48 164.959 36.48Z" fill="#EFEFEF"/>
</svg>
